<svg xmlns="http://www.w3.org/2000/svg" version="1.1" xmlns:xlink="http://www.w3.org/1999/xlink" xmlns:svgjs="http://svgjs.dev/svgjs" width="2000" height="1247" viewBox="0 0 2000 1247"><g transform="matrix(1,0,0,1,-1.2121212121212466,0.6159286497744461)"><svg viewBox="0 0 396 247" data-background-color="#ffffff" preserveAspectRatio="xMidYMid meet" height="1247" width="2000" xmlns="http://www.w3.org/2000/svg" xmlns:xlink="http://www.w3.org/1999/xlink"><g id="tight-bounds" transform="matrix(1,0,0,1,0.2400000000000091,-0.09999969807998355)"><svg viewBox="0 0 395.52 247.2" height="247.2" width="395.52"><g><svg></svg></g><g><svg viewBox="0 0 395.52 247.2" height="247.2" width="395.52"><g><g><path xmlns="http://www.w3.org/2000/svg" d="M282.296 169.32c-1.76 9.205-4.354 17.755-7.784 25.651-3.519 8.077-7.919 15.432-13.198 22.065-5.324 6.678-11.393 12.341-18.207 16.988-6.407 4.151-13.469 7.4-21.184 9.746-7.671 2.301-16.041 3.452-25.111 3.452-9.476 0-18.161-1.263-26.057-3.79-7.941-2.527-15.161-6.114-21.659-10.762-6.272-4.738-11.89-10.446-16.853-17.123-4.963-6.633-9.092-14.101-12.386-22.403-3.113-7.671-5.437-15.951-6.971-24.84-0.282-1.627-0.54-3.269-0.774-4.925l43.334 0c0.486 3.466 1.121 6.8 1.908 10.002 1.309 5.821 3.181 11.235 5.617 16.243 2.437 5.009 5.347 9.115 8.731 12.319 3.113 2.978 6.723 5.279 10.829 6.903 4.151 1.669 8.912 2.504 14.281 2.504 5.189 0 9.882-0.767 14.078-2.301 4.196-1.534 7.874-3.79 11.033-6.768 3.745-3.294 6.926-7.377 9.543-12.251 2.572-4.828 4.625-10.288 6.159-16.379 0.906-3.232 1.641-6.656 2.203-10.273l43.479 0c-0.299 1.999-0.636 3.979-1.011 5.942zM113.157 77.813c1.715-9.34 4.264-18.026 7.648-26.058 3.339-7.716 7.4-14.755 12.183-21.117 4.783-6.317 10.378-11.799 16.785-16.447 6.272-4.512 13.311-8.009 21.117-10.491 7.806-2.482 16.402-3.723 25.787-3.722 9.34 0 18.071 1.286 26.193 3.858 8.077 2.527 15.319 6.046 21.726 10.558 6.407 4.422 12.025 9.724 16.853 15.906 4.828 6.227 8.957 13.04 12.386 20.44 3.655 8.167 6.407 16.988 8.257 26.464 0.436 2.18 0.824 4.386 1.165 6.617l-43.39 0c-0.588-3.811-1.381-7.461-2.377-10.949-1.669-5.956-3.835-11.348-6.498-16.176-2.707-4.873-6.001-8.957-9.882-12.251-3.204-2.527-6.813-4.535-10.829-6.024-4.016-1.489-8.551-2.234-13.604-2.233-4.963 0-9.363 0.699-13.198 2.098-3.88 1.354-7.31 3.294-10.288 5.821-3.835 3.339-7.062 7.423-9.678 12.25-2.572 4.828-4.58 10.333-6.024 16.515-0.841 3.489-1.521 7.138-2.039 10.949l-43.273 0c0.29-2.02 0.616-4.023 0.98-6.008z" fill="#ffffff" fill-rule="nonzero" stroke="none" stroke-width="1" stroke-linecap="butt" stroke-linejoin="miter" stroke-miterlimit="10" stroke-dasharray="" stroke-dashoffset="0" font-family="none" font-weight="none" font-size="none" text-anchor="none" style="mix-blend-mode: normal" data-fill-palette-color="tertiary"></path></g></g><g transform="matrix(1,0,0,1,0,92.80805995004162)"><svg viewBox="0 0 395.52 61.58388009991673" height="61.58388009991673" width="395.52"><g><svg viewBox="0 0 395.52 61.58388009991673" height="61.58388009991673" width="395.52"><g><svg viewBox="0 0 395.52 61.58388009991673" height="61.58388009991673" width="395.52"><g><svg viewBox="0 0 395.52 61.58388009991673" height="61.58388009991673" width="395.52"><g><svg viewBox="0 0 395.52 61.58388009991673" height="61.58388009991673" width="395.52" id="textblock"><g><svg viewBox="0 0 395.52 61.58388009991673" height="61.58388009991673" width="395.52"><g transform="matrix(1,0,0,1,0,0)"><svg width="395.52" viewBox="2.0799999237060547 -36.040000915527344 234.5500030517578 36.53000259399414" height="61.58388009991673" data-palette-color="#000000"><path d="M27.88-15.28L27.88-15.28 27.88-20.21Q27.86-22.53 27.44-24.63 27.03-26.73 26.22-28.54L26.22-28.54Q25.46-30.18 24.39-31.56 23.32-32.93 21.9-33.91L21.9-33.91Q20.48-34.91 18.69-35.47 16.89-36.04 14.82-36.04L14.82-36.04Q12.74-36.04 11.01-35.49 9.28-34.94 7.89-33.94L7.89-33.94Q6.47-32.91 5.41-31.51 4.35-30.1 3.61-28.39L3.61-28.39Q2.86-26.61 2.48-24.54 2.1-22.46 2.08-20.21L2.08-20.21 2.08-15.28Q2.1-13.13 2.44-11.17 2.78-9.2 3.47-7.5L3.47-7.5Q4.2-5.66 5.3-4.19 6.4-2.71 7.79-1.66L7.79-1.66Q9.23-0.63 10.99-0.07 12.74 0.49 14.84 0.49L14.84 0.49Q16.85 0.49 18.55-0.02 20.26-0.54 21.68-1.46L21.68-1.46Q23.19-2.49 24.37-3.97 25.54-5.44 26.32-7.23L26.32-7.23Q27.08-8.98 27.47-11.02 27.86-13.06 27.88-15.28ZM21.44-20.26L21.44-20.26 21.44-15.28Q21.44-13.96 21.3-12.71 21.17-11.45 20.87-10.38L20.87-10.38Q20.53-9.03 19.96-7.96 19.38-6.88 18.55-6.15L18.55-6.15Q17.85-5.49 16.92-5.15 15.99-4.81 14.84-4.81L14.84-4.81Q13.65-4.81 12.73-5.18 11.82-5.54 11.13-6.2L11.13-6.2Q10.38-6.91 9.84-8.02 9.3-9.13 9.01-10.42L9.01-10.42Q8.74-11.52 8.63-12.76 8.52-13.99 8.52-15.28L8.52-15.28 8.52-20.26Q8.52-21.61 8.64-22.88 8.76-24.15 9.03-25.27L9.03-25.27Q9.35-26.64 9.92-27.71 10.5-28.78 11.35-29.52L11.35-29.52Q12.01-30.08 12.87-30.38 13.72-30.69 14.82-30.69L14.82-30.69Q15.94-30.69 16.83-30.36 17.72-30.03 18.43-29.47L18.43-29.47Q19.29-28.74 19.89-27.66 20.48-26.59 20.85-25.27L20.85-25.27Q21.17-24.15 21.3-22.88 21.44-21.61 21.44-20.26ZM51.9-9.2L51.9-9.2Q51.9-8.15 51.46-7.3 51.02-6.45 50.24-5.86L50.24-5.86Q49.44-5.27 48.34-4.96 47.24-4.64 45.87-4.64L45.87-4.64Q44.31-4.64 43-5 41.7-5.37 40.74-6.13L40.74-6.13Q39.79-6.91 39.24-8.08 38.69-9.25 38.62-10.86L38.62-10.86 32.32-10.86Q32.35-8.2 33.38-6.19 34.42-4.17 36.2-2.69L36.2-2.69Q38.11-1.15 40.67-0.34 43.23 0.46 45.87 0.46L45.87 0.46Q48.46 0.46 50.72-0.17 52.98-0.81 54.64-2.05L54.64-2.05Q56.32-3.3 57.29-5.1 58.25-6.91 58.25-9.25L58.25-9.25Q58.25-11.91 57.05-13.93 55.86-15.94 53.85-17.43L53.85-17.43Q52.41-18.48 50.69-19.24 48.97-20 47.09-20.53L47.09-20.53Q45.51-20.97 44.15-21.5 42.8-22.02 41.79-22.71L41.79-22.71Q40.79-23.34 40.24-24.21 39.69-25.07 39.69-26.2L39.69-26.2Q39.69-27.25 40.11-28.11 40.52-28.98 41.31-29.61L41.31-29.61Q42.09-30.22 43.19-30.57 44.28-30.91 45.63-30.91L45.63-30.91Q47.14-30.91 48.29-30.48 49.44-30.05 50.24-29.3L50.24-29.3Q51-28.54 51.43-27.49 51.85-26.44 51.93-25.17L51.93-25.17 58.18-25.17Q58.18-27.56 57.24-29.57 56.3-31.57 54.64-33.01L54.64-33.01Q52.98-34.45 50.69-35.24 48.41-36.04 45.73-36.04L45.73-36.04Q43.16-36.04 40.92-35.35 38.67-34.67 37.01-33.37L37.01-33.37Q35.32-32.1 34.36-30.27 33.4-28.44 33.4-26.2L33.4-26.2Q33.4-24.17 34.18-22.5 34.96-20.83 36.42-19.48L36.42-19.48Q37.86-18.14 40.04-17.05 42.21-15.97 44.94-15.21L44.94-15.21Q46.73-14.72 48.03-14.14 49.34-13.55 50.22-12.84L50.22-12.84Q51.07-12.08 51.49-11.19 51.9-10.3 51.9-9.2ZM69.87-7.79L80.81-7.79 83.03 0 89.67 0 78.29-35.55 72.58-35.55 60.96 0 67.62 0 69.87-7.79ZM79.27-13.23L71.45-13.23 75.41-26.81 79.27-13.23ZM99.8-10.79L103.58-14.99 112.79 0 120.38 0 107.81-19.85 119.87-35.55 112.08-35.55 103.04-23.36 99.8-19.04 99.8-35.55 93.38-35.55 93.38 0 99.8 0 99.8-10.79ZM129.87-7.79L140.81-7.79 143.03 0 149.67 0 138.3-35.55 132.58-35.55 120.96 0 127.63 0 129.87-7.79ZM139.27-13.23L131.46-13.23 135.41-26.81 139.27-13.23ZM153.38-35.55L153.38 0 166 0Q168.81 0 171.11-0.67 173.4-1.34 175.04-2.64L175.04-2.64Q176.67-3.96 177.58-5.9 178.48-7.84 178.48-10.4L178.48-10.4Q178.48-11.79 178.1-13.07 177.72-14.36 176.94-15.43L176.94-15.43Q176.23-16.43 175.15-17.2 174.06-17.97 172.4-18.43L172.4-18.43 172.4-18.46Q173.38-18.85 174.16-19.36 174.94-19.87 175.55-20.53L175.55-20.53Q176.55-21.58 177.07-22.95 177.6-24.32 177.62-25.88L177.62-25.88Q177.65-28.37 176.72-30.19 175.79-32.01 174.11-33.2L174.11-33.2Q172.42-34.38 170.1-34.96 167.79-35.55 165.03-35.55L165.03-35.55 153.38-35.55ZM159.78-5.18L159.78-15.87 166.34-15.87Q167.79-15.84 168.87-15.47 169.96-15.09 170.67-14.38L170.67-14.38Q171.4-13.67 171.75-12.67 172.11-11.67 172.08-10.42L172.08-10.42Q172.08-9.2 171.64-8.23 171.2-7.25 170.4-6.54L170.4-6.54Q169.62-5.91 168.52-5.55 167.42-5.2 166.05-5.18L166.05-5.18 159.78-5.18ZM165.12-20.58L159.78-20.58 159.78-30.32 165.08-30.32Q166.66-30.3 167.91-29.96 169.15-29.61 169.93-28.88L169.93-28.88Q170.57-28.32 170.91-27.47 171.25-26.61 171.25-25.44L171.25-25.44Q171.25-24.34 170.87-23.49 170.5-22.63 169.81-22.05L169.81-22.05Q169.03-21.31 167.83-20.96 166.64-20.61 165.12-20.58L165.12-20.58ZM190.17-15.75L204.82-15.75 204.82-20.85 190.17-20.85 190.17-30.32 207.19-30.32 207.19-35.55 183.77-35.55 183.77 0 207.28 0 207.28-5.18 190.17-5.18 190.17-15.75ZM230.26 0L236.63 0 236.63-35.55 230.23-35.55 230.18-11.94 219.54-35.55 213.12-35.55 213.12 0 219.54 0 219.56-23.68 230.26 0Z" opacity="1" transform="matrix(1,0,0,1,0,0)" fill="#ffffff" class="undefined-text-0" data-fill-palette-color="primary" id="text-0"></path></svg></g></svg></g></svg></g></svg></g><g></g></svg></g></svg></g></svg></g></svg></g><defs></defs></svg><rect width="395.52" height="247.2" fill="none" stroke="none" visibility="hidden"></rect></g></svg></g></svg>